<?xml version="1.0" encoding="utf-8"?>
<!-- Generator: Adobe Illustrator 15.1.0, SVG Export Plug-In . SVG Version: 6.00 Build 0)  -->
<!DOCTYPE svg PUBLIC "-//W3C//DTD SVG 1.1//EN" "http://www.w3.org/Graphics/SVG/1.1/DTD/svg11.dtd">
<svg version="1.1" id="Calque_1" xmlns="http://www.w3.org/2000/svg" xmlns:xlink="http://www.w3.org/1999/xlink" x="0px" y="0px"
	 width="250px" height="170px" viewBox="0 0 250 170" enable-background="new 0 0 250 170" xml:space="preserve">
<g id="XMLID_28_">
	<g>
		<path fill="#A9DAE6" d="M213.77,84.954c0,0,45.67,3.109,28.67,44.66c0,0-8.659,19.8-30,19.8H51.02c1.34-1.69,2.14-3.83,2.14-6.17
			c0-5.5-4.46-9.971-9.97-9.971c-2.93,0-5.57,1.271-7.4,3.29l-4.82-9.5c6.72-2.979,11.42-9.72,11.42-17.55
			c0-7.45-4.25-13.91-10.45-17.08l3.35-4.09c2.04,1.34,4.48,2.12,7.1,2.12c7.16,0,12.96-5.8,12.96-12.96c0-0.33-0.01-0.66-0.04-0.99
			l0.7-0.05l9.3-0.28l0.53-0.08c0.83,2.67,3.32,4.61,6.27,4.61c3.62,0,6.56-2.94,6.56-6.57c0-3.45-2.66-6.28-6.03-6.55l3.58-15.41
			c0.15,0.01,0.3,0.01,0.45,0.01c8.74,0,15.83-7.09,15.83-15.83c0-5.19-2.5-9.8-6.36-12.68l2-0.03l8.49-6.08
			c1.35,1.8,3.51,2.96,5.94,2.96c4.13,0,7.47-3.34,7.47-7.47c0-0.2-0.01-0.39-0.03-0.58l0.24-0.01l20.61,1.4
			c-0.391,1.03-0.61,2.15-0.61,3.31c0,5.09,4.12,9.21,9.21,9.21c3.77,0,7.02-2.26,8.45-5.51c0.55,0.27,18.05,9.13,18.779,31.53
			c0,0,20.141-9.21,34.94,3.94C201.63,56.354,214.11,65.074,213.77,84.954z"/>
		<path fill="#878787" d="M147.91,20.884c-1.431,3.25-4.681,5.51-8.45,5.51c-5.09,0-9.21-4.12-9.21-9.21c0-1.16,0.22-2.28,0.61-3.31
			c1.329-3.46,4.68-5.91,8.6-5.91c5.09,0,9.22,4.13,9.22,9.22C148.68,18.494,148.4,19.754,147.91,20.884z"/>
		<path fill="#878787" d="M96.63,17.574c-0.96-1.25-1.53-2.82-1.53-4.51c0-4.13,3.34-7.47,7.47-7.47c3.93,0,7.15,3.03,7.44,6.89
			c0.02,0.19,0.03,0.38,0.03,0.58c0,4.13-3.34,7.47-7.47,7.47C100.14,20.534,97.98,19.374,96.63,17.574z"/>
		<path fill="#878787" d="M76.22,52.184c-8.53-0.24-15.38-7.23-15.38-15.82c0-8.74,7.09-15.83,15.83-15.83
			c3.55,0,6.83,1.17,9.47,3.15c3.86,2.88,6.36,7.49,6.36,12.68c0,8.74-7.09,15.83-15.83,15.83
			C76.52,52.194,76.37,52.194,76.22,52.184z"/>
		<path fill="#878787" d="M72.64,67.594c3.37,0.27,6.03,3.1,6.03,6.55c0,3.63-2.94,6.57-6.56,6.57c-2.95,0-5.44-1.94-6.27-4.61
			c-0.2-0.62-0.3-1.28-0.3-1.96c0-3.63,2.94-6.57,6.57-6.57C72.29,67.574,72.47,67.584,72.64,67.594z"/>
		<path fill="#878787" d="M35.29,88.344c-3.53-2.31-5.86-6.3-5.86-10.84c0-7.16,5.8-12.96,12.96-12.96
			c6.83,0,12.42,5.27,12.92,11.97c0.03,0.33,0.04,0.66,0.04,0.99c0,7.16-5.8,12.96-12.96,12.96
			C39.77,90.464,37.33,89.684,35.29,88.344z"/>
		<path fill="#878787" d="M35.79,136.563c1.83-2.02,4.47-3.29,7.4-3.29c5.51,0,9.97,4.471,9.97,9.971c0,2.34-0.8,4.479-2.14,6.17
			c-1.82,2.319-4.65,3.8-7.83,3.8c-5.5,0-9.97-4.46-9.97-9.97C33.22,140.674,34.2,138.334,35.79,136.563z"/>
		<path fill="#878787" d="M31.94,92.434c6.2,3.17,10.45,9.63,10.45,17.08c0,7.83-4.7,14.57-11.42,17.55
			c-2.38,1.051-5,1.641-7.77,1.641c-10.6,0-19.2-8.59-19.2-19.19c0-10.6,8.6-19.189,19.2-19.189
			C26.35,90.324,29.32,91.084,31.94,92.434z"/>
	</g>
	<g>
		<path fill="none" stroke="#A9DAE6" stroke-miterlimit="10" d="M147.91,20.884c0.55,0.27,18.05,9.13,18.779,31.53
			c0,0,20.141-9.21,34.94,3.94c0,0,12.48,8.72,12.14,28.6c0,0,45.67,3.109,28.67,44.66c0,0-8.659,19.8-30,19.8"/>
		<polyline fill="none" stroke="#A9DAE6" stroke-miterlimit="10" points="213.77,149.414 212.439,149.414 51.02,149.414 		"/>
		<path fill="none" stroke="#3C3C3B" stroke-width="2.5" stroke-miterlimit="10" d="M35.79,136.563c1.83-2.02,4.47-3.29,7.4-3.29
			c5.51,0,9.97,4.471,9.97,9.971c0,2.34-0.8,4.479-2.14,6.17c-1.82,2.319-4.65,3.8-7.83,3.8c-5.5,0-9.97-4.46-9.97-9.97
			C33.22,140.674,34.2,138.334,35.79,136.563z"/>
		<path fill="none" stroke="#3C3C3B" stroke-width="4" stroke-miterlimit="10" d="M31.94,92.434c6.2,3.17,10.45,9.63,10.45,17.08
			c0,7.83-4.7,14.57-11.42,17.55c-2.38,1.051-5,1.641-7.77,1.641c-10.6,0-19.2-8.59-19.2-19.19c0-10.6,8.6-19.189,19.2-19.189
			C26.35,90.324,29.32,91.084,31.94,92.434z"/>
		<path fill="none" stroke="#3C3C3B" stroke-width="3" stroke-miterlimit="10" d="M55.31,76.514c0.03,0.33,0.04,0.66,0.04,0.99
			c0,7.16-5.8,12.96-12.96,12.96c-2.62,0-5.06-0.78-7.1-2.12c-3.53-2.31-5.86-6.3-5.86-10.84c0-7.16,5.8-12.96,12.96-12.96
			C49.22,64.544,54.81,69.814,55.31,76.514z"/>
		<path fill="none" stroke="#3C3C3B" stroke-width="2.5" stroke-miterlimit="10" d="M130.86,13.874c1.329-3.46,4.68-5.91,8.6-5.91
			c5.09,0,9.22,4.13,9.22,9.22c0,1.31-0.279,2.57-0.77,3.7c-1.431,3.25-4.681,5.51-8.45,5.51c-5.09,0-9.21-4.12-9.21-9.21
			C130.25,16.024,130.47,14.904,130.86,13.874z"/>
		<path fill="none" stroke="#3C3C3B" stroke-width="2" stroke-miterlimit="10" d="M110.01,12.484c0.02,0.19,0.03,0.38,0.03,0.58
			c0,4.13-3.34,7.47-7.47,7.47c-2.43,0-4.59-1.16-5.94-2.96c-0.96-1.25-1.53-2.82-1.53-4.51c0-4.13,3.34-7.47,7.47-7.47
			C106.5,5.594,109.72,8.624,110.01,12.484z"/>
		<path fill="none" stroke="#3C3C3B" stroke-width="4" stroke-miterlimit="10" d="M86.14,23.684c3.86,2.88,6.36,7.49,6.36,12.68
			c0,8.74-7.09,15.83-15.83,15.83c-0.15,0-0.3,0-0.45-0.01c-8.53-0.24-15.38-7.23-15.38-15.82c0-8.74,7.09-15.83,15.83-15.83
			C80.22,20.534,83.5,21.704,86.14,23.684z"/>
		<polyline fill="none" stroke="#3C3C3B" stroke-width="3" stroke-miterlimit="10" points="35.87,136.724 35.79,136.563 
			30.97,127.063 		"/>
		<polyline fill="none" stroke="#3C3C3B" stroke-width="3" stroke-miterlimit="10" points="31.42,93.063 31.94,92.434 35.29,88.344 
			35.4,88.204 		"/>
		<line fill="none" stroke="#3C3C3B" stroke-width="3" stroke-miterlimit="10" x1="56.01" y1="76.464" x2="65.31" y2="76.184"/>
		<polyline fill="none" stroke="#3C3C3B" stroke-width="3" stroke-miterlimit="10" points="72.64,67.594 76.22,52.184 76.27,51.964 
					"/>
		<polyline fill="none" stroke="#3C3C3B" stroke-width="3" stroke-miterlimit="10" points="88.14,23.654 96.63,17.574 96.89,17.394 
					"/>
		<path fill="none" stroke="#3C3C3B" stroke-width="2" stroke-miterlimit="10" d="M72.64,67.594c3.37,0.27,6.03,3.1,6.03,6.55
			c0,3.63-2.94,6.57-6.56,6.57c-2.95,0-5.44-1.94-6.27-4.61c-0.2-0.62-0.3-1.28-0.3-1.96c0-3.63,2.94-6.57,6.57-6.57
			C72.29,67.574,72.47,67.584,72.64,67.594z"/>
		<polyline fill="none" stroke="#3C3C3B" stroke-width="3" stroke-miterlimit="10" points="110.25,12.474 130.86,13.874 
			131.34,13.904 		"/>
	</g>
</g>
<g>
	<g id="XMLID_31_">
		<g>
			<path fill="#3C3C3B" d="M197.545,80.539c4.272-5.453,6.994-11.277,7.175-19.132c-2.966-0.68-4.996-1.137-8.503-0.797
				c-7.961,0.776-17.793,7.004-21.789,13.551c-4.071,6.686-2.923,18.526,7.705,17.262C188.787,90.636,193.899,85.183,197.545,80.539
				z M207.643,62.735c-0.829,12.34-9.693,25.722-20.195,30.016c-9.99,4.092-19.748-1.998-17.803-13.01
				c-5.548,6.494-12.138,13.51-19.663,19.387c-1.902,1.499-6.866,4.082-7.43,5.846c-1.85,5.708,3.443,12.883,7.43,14.35
				c1.478,0.542,2.955,0.733,4.4,0.669l0.063,2.35c-10.799,0.34-15.241-7.695-18.005-15.773c-6.664,1.987-13.148,1.127-18.707-1.541
				l0.957-2.137c4.996,2.498,11.054,3.093,17.219,0.755c-1.563-18.707,6.982-30.101,16.729-39.847
				c8.312-8.312,20.12-15.869,32.417-17.272c2.477,0,4.964,0,7.44,0c8.057,1.329,13.987,4.783,14.881,13.286
				c3.124,1.499,5.824,2.477,7.705,4.783c6.622,8.142,0.851,17.761-3.985,22.576c-2.444,2.434-5.293,5.495-7.972,4.518
				c0.723-2.966,4.518-4.443,6.908-7.175C215.699,78.051,217.761,65.478,207.643,62.735z M143.083,100.181
				c9.226-5.24,16.805-13.807,24.701-22.831c8.089-9.247,19.313-21.449,36.669-18.069c-1.063-7.961-8.035-11.639-17.537-10.629
				c-12.276,1.307-21.353,10.629-28.432,19.132C150.726,77.116,144.954,87.83,143.083,100.181z"/>
			<path fill="#3C3C3B" d="M127.023,114.401c7.567,1.839,14.562,7.791,14.2,16.348c-0.319,7.472-7.717,13.18-16.209,10.097
				c6.026-2.646,10.799-5.856,11.16-12.488c0.308-5.92-4.05-10.757-9.598-12.096L127.023,114.401z"/>
			<path fill="#3C3C3B" d="M101.249,79.72c0-15.646,14.296-27.688,31.206-23.362c-11.915,3.295-25.009,11.022-26.04,25.243
				c-0.659,9.108,4.56,17.452,12.276,21.289l-0.957,2.137c-8.95-4.305-15.476-13.35-16.368-22.895
				C101.291,81.314,101.249,80.517,101.249,79.72z"/>
			<path fill="#3C3C3B" d="M199.14,140.049c12.042-1.021,20.226-13.552,18.6-28.166c-0.616-5.484-6.249-13.839-11.426-8.769
				c-3.306,3.241-3.678,11.617-4.517,17.537C200.818,127.55,200.106,133.82,199.14,140.049z M202.859,98.065
				c2.806-2.731,8.078-5.06,13.552-3.188c9.354,3.21,12.542,17.399,8.503,28.432c-4.018,10.958-13.69,19.195-26.307,20.194
				c-1.211,6.845-2.338,13.775-3.72,20.461c-1.19-0.117-2.636,0.042-3.933,0.042c-0.829,0-1.595-0.063-2.179-0.308
				c1.147-6.644,2.54-13.053,3.454-19.93c-7.972-1.328-14.03-4.57-17.537-10.373c-4.985,15.592-25.552,26.721-44.63,19.674
				c-10.215-3.784-19.908-12.872-20.992-24.712c-1.137-12.415,8.822-16.177,17.952-13.956l-0.446,1.86
				c-2.923-0.701-6.197-0.425-9.269,1.201c-3.422,1.807-5.612,5.517-5.58,10.353c0.074,13.041,13.647,23.446,25.243,24.456
				c9.119,0.798,15.316-1.966,19.918-5.846c9.673-8.173,13.35-21.311,17.804-34.012c-0.691-1.116-1.36,0.616-1.595,0.797
				c-4.379,3.486-10.32,8.354-17.006,9.024c-0.563,0.063-1.116,0.096-1.647,0.106l-0.063-2.35c6.249-0.34,12.042-5.591,15.794-8.641
				c4.857-3.933,9.534-9.109,14.083-11.958c3.901-2.434,8.237-4.751,13.286-3.985c-0.383,2.742-3.295,2.604-5.314,4.241
				c-9.385,7.674-15.752,37.402,0.797,40.134C196.567,126.71,194.42,106.292,202.859,98.065z"/>
		</g>
		<g>
		</g>
	</g>
</g>
</svg>
